<svg width="26" height="21" viewBox="0 0 26 21" fill="none" xmlns="http://www.w3.org/2000/svg">
<path d="M25.1543 7.95703V16.4316C25.1542 18.3037 23.6367 19.8212 21.7646 19.8213H4.81543C2.94335 19.8213 1.42591 18.3037 1.42578 16.4316V7.95703H25.1543Z" fill="#C7C7C9" stroke="#D18F00" stroke-width="1.69492"/>
<path d="M3.96777 1.17773H5.21582C5.74438 1.17774 5.84648 1.18474 5.93457 1.20996C6.0226 1.2352 6.11329 1.28286 6.56152 1.5625L7.59863 2.20996C7.96806 2.44043 8.28711 2.64812 8.65625 2.75391C9.02555 2.85966 9.40623 2.85254 9.8418 2.85254H22.6123C23.4348 2.85254 23.9665 2.85459 24.3584 2.90723C24.7259 2.95664 24.8417 3.03608 24.9062 3.10059C24.9702 3.16458 25.05 3.28041 25.0996 3.65039C25.1523 4.04422 25.1543 4.57923 25.1543 5.40527C25.1543 6.23098 25.1523 6.76543 25.0996 7.15918C25.0501 7.5291 24.9702 7.64499 24.9062 7.70898C24.8417 7.7735 24.726 7.85292 24.3584 7.90234C23.9665 7.95498 23.4348 7.95703 22.6123 7.95703H3.96777C3.14493 7.95703 2.61263 7.95504 2.2207 7.90234C1.8535 7.85292 1.73832 7.77347 1.67383 7.70898C1.60934 7.6445 1.52989 7.52931 1.48047 7.16211C1.42778 6.77019 1.42578 6.23786 1.42578 5.41504V3.71973C1.42578 2.89688 1.42778 2.36458 1.48047 1.97266C1.52989 1.60543 1.60934 1.49027 1.67383 1.42578C1.73831 1.36129 1.85347 1.28185 2.2207 1.23242C2.61263 1.17973 3.14493 1.17773 3.96777 1.17773Z" fill="#C7C7C9" stroke="#D18F00" stroke-width="1.69492"/>
</svg>
