<svg width="25" height="9" viewBox="0 0 25 9" fill="none" xmlns="http://www.w3.org/2000/svg">
<path d="M3.33366 0.833665H4.55982C5.07903 0.833665 5.17975 0.840736 5.2663 0.865461C5.35292 0.890267 5.44223 0.93704 5.88335 1.21224L6.90382 1.84917C7.26695 2.07572 7.58027 2.27976 7.94316 2.38374C8.21565 2.46177 8.49462 2.47734 8.79769 2.48013H21.6663C22.4751 2.48013 22.998 2.48201 23.3833 2.53378C23.7448 2.58238 23.8585 2.66113 23.9219 2.72456C23.9848 2.78749 24.063 2.90106 24.1117 3.26411C24.1636 3.65139 24.1653 4.17765 24.1653 4.99006C24.1653 5.8022 24.1635 6.32779 24.1117 6.71502C24.063 7.07858 23.9848 7.19262 23.9219 7.25556C23.8585 7.319 23.7448 7.39775 23.3833 7.44634C22.998 7.49812 22.4751 7.5 21.6663 7.5H3.33366C2.52457 7.5 2.00105 7.49814 1.61566 7.44634C1.25422 7.39775 1.14054 7.319 1.07711 7.25556C1.01374 7.19213 0.935873 7.07866 0.887321 6.718C0.835508 6.33262 0.833665 5.8091 0.833665 5V3.33366C0.833665 2.52451 0.835514 2.00106 0.887321 1.61566C0.935915 1.25422 1.01367 1.14054 1.07711 1.07711C1.14054 1.01367 1.25422 0.935915 1.61566 0.887321C2.00106 0.835514 2.52451 0.833665 3.33366 0.833665Z" fill="#C7C7C9" stroke="#D18F00" stroke-width="1.63796"/>
</svg>
