<svg width="26" height="21" viewBox="0 0 26 21" fill="none" xmlns="http://www.w3.org/2000/svg">
<path d="M24.5078 7.82324V16.0127C24.5078 17.8219 23.0416 19.289 21.2324 19.2891H4.85254C3.04338 19.289 1.57715 17.8219 1.57715 16.0127V7.82324H24.5078Z" fill="#C7C7C9" stroke="#D18F00" stroke-width="1.63796"/>
<path d="M4.03418 1.27051H5.23926C5.74955 1.27051 5.84854 1.27746 5.93359 1.30176C6.01873 1.32614 6.1065 1.37211 6.54004 1.64258L7.54297 2.26855C7.89986 2.49121 8.2078 2.69175 8.56445 2.79395C8.83226 2.87063 9.10643 2.88594 9.4043 2.88867H22.0518C22.8466 2.88867 23.3606 2.89052 23.7393 2.94141C24.0945 2.98916 24.2062 3.06656 24.2686 3.12891C24.3303 3.19075 24.4072 3.30237 24.4551 3.65918C24.5061 4.0398 24.5078 4.55702 24.5078 5.35547C24.5078 6.15365 24.506 6.6702 24.4551 7.05078C24.4072 7.40809 24.3304 7.52017 24.2686 7.58203C24.2062 7.64438 24.0945 7.72177 23.7393 7.76953C23.3606 7.82041 22.8466 7.82227 22.0518 7.82227H4.03418C3.23899 7.82227 2.72447 7.82044 2.3457 7.76953C1.99048 7.72177 1.87875 7.64438 1.81641 7.58203C1.75412 7.51968 1.6776 7.40817 1.62988 7.05371C1.57896 6.67495 1.57715 6.16043 1.57715 5.36523V3.72754C1.57715 2.93229 1.57897 2.41784 1.62988 2.03906C1.67764 1.68384 1.75406 1.57211 1.81641 1.50977C1.87875 1.44742 1.99048 1.371 2.3457 1.32324C2.72448 1.27233 3.23893 1.27051 4.03418 1.27051Z" fill="#C7C7C9" stroke="#D18F00" stroke-width="1.63796"/>
</svg>
