<svg width="27" height="27" viewBox="0 0 27 27" fill="none" xmlns="http://www.w3.org/2000/svg">
<path fill-rule="evenodd" clip-rule="evenodd" d="M4.99277 1.89328C6.8402 0.658868 9.0122 0 11.2341 0C14.2135 0.000189651 17.0709 1.18383 19.1776 3.29058C21.2843 5.39732 22.468 8.25463 22.4682 11.234C22.4682 13.4559 21.8093 15.628 20.5749 17.4754C19.3405 19.3228 17.5859 20.7627 15.5332 21.613C13.4804 22.4633 11.2216 22.6858 9.04243 22.2523C6.86323 21.8188 4.86151 20.7489 3.29039 19.1778C1.71928 17.6067 0.649334 15.6049 0.215865 13.4257C-0.217605 11.2465 0.00486745 8.98775 0.855149 6.93499C1.70543 4.88222 3.14533 3.1277 4.99277 1.89328ZM11.234 2.0769C9.42293 2.07691 7.6525 2.61397 6.14663 3.62016C4.64074 4.62637 3.46704 6.05652 2.77395 7.72978C2.08087 9.40304 1.89953 11.2442 2.25286 13.0206C2.60619 14.7969 3.47833 16.4285 4.75898 17.7092C6.03964 18.9898 7.67129 19.862 9.44761 20.2153C11.2239 20.5686 13.0651 20.3873 14.7384 19.6942C16.4116 19.0011 17.8418 17.8274 18.848 16.3215C19.8542 14.8157 20.3913 13.0452 20.3913 11.2341M11.234 2.0769C13.6626 2.07707 15.9917 3.0419 17.709 4.75917C19.4263 6.47644 20.3911 8.80557 20.3913 11.2341" fill="#494949"/>
<path fill-rule="evenodd" clip-rule="evenodd" d="M18.1064 18.1064C18.512 17.7009 19.1695 17.7009 19.575 18.1064L26.6956 25.227C27.1011 25.6325 27.1011 26.29 26.6956 26.6955C26.29 27.1011 25.6325 27.1011 25.227 26.6955L18.1064 19.575C17.7009 19.1695 17.7009 18.512 18.1064 18.1064Z" fill="#494949"/>
</svg>
