<svg width="54" height="42" viewBox="0 0 54 42" fill="none" xmlns="http://www.w3.org/2000/svg">
<path d="M27.0152 30.7261C31.1529 30.7261 34.5073 27.3718 34.5073 23.234C34.5073 19.0963 31.1529 15.7419 27.0152 15.7419C22.8774 15.7419 19.5231 19.0963 19.5231 23.234C19.5231 27.3718 22.8774 30.7261 27.0152 30.7261Z" fill="#1E293B"/>
<path d="M50.4279 8.24988H40.7116C40.3604 8.24988 39.925 8.02277 39.5855 7.66456L36.392 2.65424C35.0926 0.757812 34.5073 0.757812 32.4001 0.757812H21.6303C19.5231 0.757812 18.8207 0.757812 17.6419 2.65541L14.4449 7.66456C14.185 7.94785 13.8198 8.24988 13.4358 8.24988V6.37686C13.4358 6.12848 13.3372 5.89028 13.1615 5.71465C12.9859 5.53902 12.7477 5.44035 12.4993 5.44035H7.81678C7.5684 5.44035 7.3302 5.53902 7.15457 5.71465C6.97894 5.89028 6.88027 6.12848 6.88027 6.37686V8.24988H3.60249C2.85736 8.24988 2.14275 8.54588 1.61586 9.07277C1.08897 9.59965 0.792969 10.3143 0.792969 11.0594V39.1546C0.792969 39.8998 1.08897 40.6144 1.61586 41.1413C2.14275 41.6682 2.85736 41.9642 3.60249 41.9642H50.4279C51.173 41.9642 51.8876 41.6682 52.4145 41.1413C52.9414 40.6144 53.2374 39.8998 53.2374 39.1546V11.0594C53.2374 10.3143 52.9414 9.59965 52.4145 9.07277C51.8876 8.54588 51.173 8.24988 50.4279 8.24988ZM27.5431 34.4604C25.278 34.5668 23.0337 33.9854 21.105 32.7928C19.1764 31.6001 17.6537 29.8518 16.737 27.7778C15.8203 25.7037 15.5525 23.4008 15.9687 21.1717C16.385 18.9426 17.4659 16.8916 19.0693 15.2881C20.6728 13.6847 22.7238 12.6038 24.9529 12.1875C27.182 11.7713 29.4849 12.0391 31.559 12.9558C33.633 13.8725 35.3813 15.3952 36.5739 17.3239C37.7666 19.2525 38.348 21.4968 38.2416 23.762C38.1074 26.5561 36.9372 29.2 34.9592 31.178C32.9812 33.156 30.3373 34.3262 27.5431 34.4604Z" fill="#1E293B"/>
</svg>
